<svg width="176" height="36" viewBox="0 0 176 36" fill="none" xmlns="http://www.w3.org/2000/svg">
<path d="M125.035 26.7594C125.035 26.8566 125.065 26.9222 125.123 26.9562C125.186 26.9854 125.235 27 125.269 27H126.669C126.708 27 126.756 26.983 126.815 26.949C126.878 26.9149 126.909 26.8493 126.909 26.7521V25.3812C126.909 25.3424 126.895 25.2913 126.866 25.2281C126.836 25.1601 126.768 25.126 126.661 25.126H125.283C125.215 25.126 125.157 25.1479 125.108 25.1917C125.06 25.2354 125.035 25.301 125.035 25.3885V26.7594ZM128.562 25.5125C128.883 26.0132 129.315 26.4118 129.86 26.7083C130.404 27.0049 131.036 27.1531 131.756 27.1531C132.154 27.1531 132.55 27.0972 132.944 26.9854C133.338 26.8736 133.69 26.7059 134.001 26.4823C134.317 26.2587 134.573 25.9767 134.767 25.6365C134.966 25.2962 135.066 24.8976 135.066 24.4406C135.066 24.149 135.02 23.867 134.927 23.5948C134.84 23.3177 134.701 23.0601 134.512 22.8219C134.322 22.5788 134.077 22.3601 133.775 22.1656C133.479 21.9712 133.122 21.8108 132.704 21.6844C132.392 21.592 132.113 21.5118 131.865 21.4437C131.617 21.3757 131.406 21.3028 131.231 21.225C131.056 21.1472 130.922 21.0549 130.83 20.9479C130.737 20.841 130.691 20.7 130.691 20.525C130.691 20.2868 130.791 20.0875 130.99 19.9271C131.189 19.7667 131.481 19.6865 131.865 19.6865C132.239 19.6865 132.543 19.7545 132.776 19.8906C133.015 20.0267 133.231 20.2066 133.425 20.4302C133.498 20.5177 133.571 20.5615 133.644 20.5615C133.712 20.5615 133.775 20.5347 133.834 20.4812L134.665 19.7958C134.762 19.7181 134.806 19.6451 134.796 19.5771C134.791 19.509 134.757 19.4337 134.694 19.351C134.568 19.1906 134.415 19.0278 134.235 18.8625C134.06 18.6924 133.853 18.5417 133.615 18.4104C133.377 18.2743 133.107 18.1625 132.806 18.075C132.509 17.9875 132.179 17.9437 131.814 17.9437C131.333 17.9437 130.9 18.0191 130.516 18.1698C130.137 18.3205 129.814 18.5174 129.546 18.7604C129.284 18.9986 129.082 19.266 128.941 19.5625C128.8 19.859 128.73 20.1556 128.73 20.4521C128.73 20.8264 128.783 21.1594 128.89 21.451C129.002 21.7427 129.167 22.0028 129.386 22.2312C129.609 22.4549 129.891 22.6542 130.232 22.8292C130.572 22.9993 130.973 23.1549 131.435 23.2958C131.702 23.3736 131.938 23.4417 132.142 23.5C132.351 23.5535 132.526 23.6167 132.667 23.6896C132.813 23.7625 132.922 23.8524 132.995 23.9594C133.073 24.0663 133.112 24.2146 133.112 24.4042C133.112 24.5646 133.066 24.708 132.973 24.8344C132.881 24.9608 132.762 25.0677 132.616 25.1552C132.47 25.2427 132.307 25.3108 132.127 25.3594C131.948 25.408 131.77 25.4323 131.595 25.4323C131.381 25.4323 131.189 25.4031 131.019 25.3448C130.849 25.2865 130.693 25.2111 130.552 25.1187C130.416 25.0215 130.292 24.9122 130.181 24.7906C130.074 24.6642 129.974 24.5354 129.882 24.4042C129.804 24.2972 129.719 24.2437 129.626 24.2437C129.568 24.2437 129.517 24.2632 129.473 24.3021L128.576 24.9802C128.474 25.0774 128.433 25.1698 128.452 25.2573C128.472 25.3448 128.508 25.4299 128.562 25.5125ZM138.52 22.5229C138.52 22.1924 138.581 21.8642 138.703 21.5385C138.829 21.2128 139.007 20.9236 139.235 20.6708C139.468 20.4132 139.748 20.2066 140.074 20.051C140.404 19.8906 140.771 19.8104 141.175 19.8104C141.578 19.8104 141.943 19.8809 142.268 20.0219C142.594 20.158 142.869 20.3476 143.092 20.5906C143.321 20.8337 143.496 21.1205 143.617 21.451C143.739 21.7816 143.8 22.1389 143.8 22.5229C143.8 22.9069 143.736 23.2691 143.61 23.6094C143.484 23.9448 143.304 24.2389 143.07 24.4917C142.842 24.7396 142.565 24.9365 142.239 25.0823C141.918 25.2233 141.561 25.2937 141.167 25.2937C140.764 25.2937 140.399 25.2135 140.074 25.0531C139.748 24.8878 139.468 24.674 139.235 24.4115C139.007 24.149 138.829 23.8524 138.703 23.5219C138.581 23.1913 138.52 22.8583 138.52 22.5229ZM136.639 29.399C136.639 29.5934 136.736 29.6906 136.931 29.6906H138.316C138.501 29.6906 138.593 29.5934 138.593 29.399V25.8917C138.943 26.266 139.354 26.5625 139.826 26.7812C140.297 26.9951 140.812 27.1021 141.371 27.1021C142.013 27.1021 142.604 26.983 143.143 26.7448C143.683 26.5017 144.147 26.1736 144.536 25.7604C144.93 25.3424 145.236 24.8538 145.455 24.2948C145.674 23.7358 145.783 23.1403 145.783 22.5083C145.783 21.8375 145.664 21.225 145.426 20.6708C145.192 20.1167 144.874 19.6403 144.47 19.2417C144.067 18.8431 143.598 18.5344 143.063 18.3156C142.533 18.0969 141.972 17.9875 141.379 17.9875C140.82 17.9875 140.292 18.109 139.796 18.3521C139.306 18.5951 138.875 18.9233 138.506 19.3365L138.353 18.4687C138.328 18.3472 138.282 18.25 138.214 18.1771C138.151 18.0993 138.056 18.0604 137.93 18.0604H136.931C136.736 18.0604 136.639 18.1576 136.639 18.3521V29.399ZM154.361 22.5667C154.361 22.9458 154.293 23.3031 154.157 23.6385C154.025 23.974 153.841 24.2681 153.602 24.5208C153.364 24.7736 153.082 24.9753 152.757 25.126C152.431 25.2719 152.078 25.3448 151.699 25.3448C151.33 25.3448 150.985 25.2743 150.664 25.1333C150.348 24.9875 150.071 24.7906 149.833 24.5427C149.599 24.2899 149.414 23.9958 149.278 23.6604C149.147 23.3201 149.082 22.9556 149.082 22.5667C149.082 22.1632 149.15 21.7913 149.286 21.451C149.427 21.1108 149.616 20.8167 149.854 20.5687C150.093 20.3208 150.37 20.1288 150.686 19.9927C151.007 19.8517 151.344 19.7812 151.699 19.7812C152.069 19.7812 152.414 19.8566 152.735 20.0073C153.06 20.1531 153.342 20.3524 153.58 20.6052C153.824 20.858 154.013 21.1545 154.149 21.4948C154.29 21.8302 154.361 22.1875 154.361 22.5667ZM156.344 18.3521C156.344 18.1576 156.252 18.0604 156.067 18.0604H154.9C154.803 18.0604 154.735 18.0847 154.696 18.1333C154.657 18.1819 154.63 18.2549 154.616 18.3521L154.492 19.2271C154.113 18.7944 153.69 18.4785 153.223 18.2792C152.757 18.075 152.219 17.9729 151.612 17.9729C150.989 17.9729 150.404 18.0944 149.854 18.3375C149.305 18.5806 148.826 18.9111 148.418 19.3292C148.01 19.7424 147.686 20.2285 147.448 20.7875C147.21 21.3465 147.091 21.942 147.091 22.574C147.091 23.2448 147.215 23.8622 147.463 24.426C147.711 24.9851 148.044 25.4687 148.462 25.8771C148.88 26.2806 149.361 26.5965 149.905 26.825C150.45 27.0486 151.019 27.1604 151.612 27.1604C152.137 27.1604 152.635 27.0559 153.107 26.8469C153.583 26.6378 154.011 26.3486 154.39 25.9792V26.5625C154.39 26.6889 154.429 26.7934 154.507 26.876C154.589 26.9587 154.694 27 154.82 27H156.067C156.252 27 156.344 26.9028 156.344 26.7083V18.3521ZM164.283 24.5937C164.171 24.6812 164.045 24.7687 163.904 24.8562C163.768 24.9437 163.619 25.024 163.459 25.0969C163.298 25.1698 163.123 25.2281 162.934 25.2719C162.749 25.3156 162.552 25.3375 162.343 25.3375C161.974 25.3375 161.629 25.2694 161.308 25.1333C160.987 24.9924 160.705 24.7979 160.462 24.55C160.224 24.3021 160.034 24.008 159.893 23.6677C159.757 23.3274 159.689 22.958 159.689 22.5594C159.689 22.151 159.762 21.7767 159.908 21.4365C160.054 21.0962 160.248 20.8021 160.491 20.5542C160.739 20.3062 161.021 20.1142 161.337 19.9781C161.658 19.8372 161.991 19.7667 162.336 19.7667C162.662 19.7667 162.987 19.8201 163.313 19.9271C163.639 20.0292 163.969 20.2115 164.305 20.474C164.353 20.508 164.407 20.525 164.465 20.525C164.538 20.525 164.594 20.4983 164.633 20.4448L165.347 19.3438C165.377 19.2951 165.389 19.2441 165.384 19.1906C165.379 19.1372 165.345 19.0837 165.282 19.0302C164.869 18.6948 164.424 18.4347 163.947 18.25C163.471 18.0604 162.927 17.9681 162.314 17.9729C161.697 17.9729 161.111 18.092 160.557 18.3302C160.007 18.5684 159.524 18.8941 159.106 19.3073C158.693 19.7156 158.364 20.1993 158.121 20.7583C157.878 21.3125 157.757 21.9104 157.757 22.5521C157.757 23.2132 157.878 23.8257 158.121 24.3896C158.364 24.9486 158.695 25.4347 159.113 25.8479C159.531 26.2611 160.02 26.5844 160.579 26.8177C161.138 27.051 161.733 27.1677 162.365 27.1677C162.642 27.1677 162.919 27.1385 163.196 27.0802C163.473 27.0219 163.738 26.9417 163.991 26.8396C164.249 26.7375 164.487 26.6208 164.706 26.4896C164.929 26.3535 165.126 26.2125 165.296 26.0667C165.432 25.95 165.449 25.8139 165.347 25.6583L164.633 24.6083C164.599 24.5549 164.545 24.5281 164.472 24.5281C164.399 24.5281 164.336 24.55 164.283 24.5937ZM170.801 19.6865C171.092 19.6865 171.367 19.7351 171.625 19.8323C171.882 19.9247 172.116 20.0559 172.325 20.226C172.538 20.3962 172.726 20.6003 172.886 20.8385C173.051 21.0719 173.185 21.3295 173.287 21.6115H168.292C168.385 21.3441 168.511 21.0937 168.671 20.8604C168.837 20.6271 169.026 20.4229 169.24 20.2479C169.459 20.0729 169.7 19.9368 169.962 19.8396C170.225 19.7375 170.504 19.6865 170.801 19.6865ZM173.01 24.55C172.888 24.6375 172.765 24.7323 172.638 24.8344C172.517 24.9316 172.373 25.024 172.208 25.1115C172.048 25.1941 171.858 25.2622 171.639 25.3156C171.42 25.3691 171.158 25.3958 170.852 25.3958C170.531 25.3958 170.227 25.3472 169.94 25.25C169.653 25.1479 169.393 25.0069 169.16 24.8271C168.932 24.6424 168.735 24.4212 168.569 24.1635C168.404 23.901 168.285 23.6118 168.212 23.2958H174.483C174.629 23.2958 174.748 23.2885 174.84 23.274C174.933 23.2545 175.006 23.2205 175.059 23.1719C175.112 23.1184 175.149 23.0455 175.168 22.9531C175.188 22.8608 175.198 22.7368 175.198 22.5812C175.198 22.0465 175.132 21.5628 175.001 21.1302C174.874 20.6927 174.702 20.3038 174.483 19.9635C174.269 19.6233 174.016 19.3292 173.725 19.0812C173.433 18.8333 173.122 18.6292 172.791 18.4687C172.466 18.3035 172.13 18.1819 171.785 18.1042C171.445 18.0215 171.112 17.9802 170.786 17.9802C170.13 17.9802 169.525 18.1017 168.97 18.3448C168.416 18.5878 167.937 18.9184 167.534 19.3365C167.135 19.7545 166.822 20.2431 166.593 20.8021C166.37 21.3562 166.258 21.9493 166.258 22.5812C166.258 23.2132 166.382 23.8062 166.63 24.3604C166.878 24.9146 167.211 25.4007 167.629 25.8187C168.052 26.2319 168.538 26.5601 169.087 26.8031C169.641 27.0413 170.225 27.1604 170.837 27.1604C171.42 27.1604 171.97 27.0608 172.485 26.8615C173.005 26.6622 173.53 26.3316 174.06 25.8698C174.196 25.7483 174.203 25.6073 174.082 25.4469L173.367 24.5719C173.343 24.5378 173.316 24.516 173.287 24.5062C173.258 24.4917 173.229 24.4844 173.2 24.4844C173.136 24.4844 173.073 24.5062 173.01 24.55Z" fill="white"/>
<path d="M9.936 27.036C13.032 27.036 15.876 25.488 17.532 22.896C18.072 22.068 17.856 20.952 17.028 20.412C16.2 19.908 15.084 20.124 14.544 20.952C13.536 22.536 11.808 23.472 9.936 23.472C6.948 23.472 4.464 20.988 4.464 18C4.464 14.976 6.948 12.528 9.936 12.528C11.916 12.528 13.716 13.572 14.688 15.264C15.192 16.092 16.272 16.38 17.136 15.912C17.964 15.408 18.288 14.328 17.784 13.464C16.164 10.692 13.176 8.964 9.936 8.964C4.968 8.964 0.936 12.996 0.936 18C0.936 22.968 4.968 27.036 9.936 27.036ZM28.161 8.928C26.541 8.928 25.065 9.396 23.805 10.224V1.764C23.805 0.791998 23.013 -2.14577e-06 22.005 -2.14577e-06C21.033 -2.14577e-06 20.241 0.791998 20.241 1.764V25.2C20.241 26.208 21.033 27 22.005 27C23.013 27 23.805 26.208 23.805 25.2V16.848C23.805 14.436 25.749 12.492 28.161 12.492C30.573 12.492 32.553 14.436 32.553 16.848V25.2C32.553 26.208 33.345 27 34.317 27C35.289 27 36.117 26.208 36.117 25.2V16.848C36.117 12.492 32.553 8.928 28.161 8.928ZM47.1673 8.964C42.1993 8.964 38.1313 12.996 38.1313 18V25.236C38.1313 26.208 38.9233 27.036 39.9313 27.036C40.9033 27.036 41.6953 26.208 41.6953 25.236V18C41.6953 14.976 44.1433 12.528 47.1673 12.528C48.1753 12.528 48.9673 11.7 48.9673 10.728C48.9673 9.756 48.1753 8.964 47.1673 8.964ZM63.812 9.072C62.84 9.072 62.048 9.864 62.048 10.836V19.764C62.048 21.816 60.392 23.472 58.34 23.472C56.324 23.472 54.632 21.816 54.632 19.764V10.836C54.632 9.864 53.84 9.072 52.868 9.072C51.896 9.072 51.104 9.864 51.104 10.836V19.8C51.104 19.8 51.104 19.8 51.104 19.836C51.14 23.796 54.38 27 58.34 27C59.708 27 60.968 26.64 62.048 25.992V28.584C62.048 30.708 60.32 32.436 58.16 32.436C56.684 32.436 55.352 31.608 54.668 30.276C54.272 29.412 53.192 29.016 52.328 29.448C51.428 29.88 51.068 30.96 51.5 31.824C52.76 34.38 55.316 36 58.16 36C62.264 36 65.612 32.652 65.612 28.584V10.836C65.612 9.864 64.82 9.072 63.812 9.072ZM76.9815 17.784C75.9735 16.776 74.6055 16.2 73.1655 16.2C72.1575 16.2 71.3295 15.372 71.3295 14.364C71.3295 13.356 72.1575 12.528 73.1655 12.528C74.0295 12.528 74.6415 12.924 74.8575 13.5C75.1815 14.4 76.0095 15.048 76.9815 14.832C77.9535 14.652 78.5295 13.68 78.3495 12.708C77.9895 10.692 75.6855 8.964 73.1655 8.964C70.1775 8.964 67.7655 11.376 67.7655 14.364C67.7655 15.804 68.3055 17.172 69.3495 18.18C70.3575 19.188 71.7255 19.764 73.1655 19.764C74.1735 19.764 75.0015 20.592 75.0015 21.6C75.0015 22.644 74.1735 23.472 73.1655 23.472C72.3015 23.472 71.8695 23.328 71.3655 22.392C70.8975 21.492 70.2135 20.808 69.2415 20.988C68.3055 21.204 67.5495 22.176 67.8735 23.112C68.5575 25.2 70.6095 27.036 73.1655 27.036C76.1535 27.036 78.5655 24.588 78.5655 21.6C78.5655 20.16 78.0255 18.828 76.9815 17.784ZM89.3908 9C84.3148 9 80.2828 13.032 80.2828 18.108C80.2828 23.184 84.3148 26.964 89.3908 26.964C91.4428 26.964 93.1708 26.46 94.7188 25.164C94.7188 26.208 95.7268 26.964 96.4468 26.964C97.4908 26.964 98.2468 26.208 98.2468 25.164V18.108C98.2468 13.032 94.4668 9 89.3908 9ZM89.3908 23.436C86.3668 23.436 83.8108 21.132 83.8108 18.108C83.8108 15.084 86.3668 12.528 89.3908 12.528C92.4148 12.528 94.7188 15.084 94.7188 18.108C94.7188 21.132 92.4148 23.436 89.3908 23.436ZM102.127 27.036C103.099 27.036 103.891 26.244 103.891 25.236V1.8C103.891 0.827998 103.099 0.0359995 102.127 0.0359995C101.119 0.0359995 100.327 0.827998 100.327 1.8V25.236C100.327 26.244 101.119 27.036 102.127 27.036ZM107.928 27.036C108.9 27.036 109.692 26.244 109.692 25.236V10.728C109.692 9.756 108.9 8.964 107.928 8.964C106.92 8.964 106.128 9.756 106.128 10.728V25.236C106.128 26.244 106.92 27.036 107.928 27.036ZM107.928 5.364C108.396 5.364 108.864 5.184 109.188 4.86C109.512 4.536 109.692 4.068 109.692 3.6C109.692 3.132 109.512 2.664 109.188 2.34C108.864 2.016 108.396 1.8 107.928 1.8C107.46 1.8 106.992 2.016 106.668 2.34C106.344 2.664 106.128 3.132 106.128 3.6C106.128 4.068 106.344 4.536 106.668 4.86C106.992 5.184 107.46 5.364 107.928 5.364ZM121.103 17.784C120.095 16.776 118.727 16.2 117.287 16.2C116.279 16.2 115.451 15.372 115.451 14.364C115.451 13.356 116.279 12.528 117.287 12.528C118.151 12.528 118.763 12.924 118.979 13.5C119.303 14.4 120.131 15.048 121.103 14.832C122.075 14.652 122.651 13.68 122.471 12.708C122.111 10.692 119.807 8.964 117.287 8.964C114.299 8.964 111.887 11.376 111.887 14.364C111.887 15.804 112.427 17.172 113.471 18.18C114.479 19.188 115.847 19.764 117.287 19.764C118.295 19.764 119.123 20.592 119.123 21.6C119.123 22.644 118.295 23.472 117.287 23.472C116.423 23.472 115.991 23.328 115.487 22.392C115.019 21.492 114.335 20.808 113.363 20.988C112.427 21.204 111.671 22.176 111.995 23.112C112.679 25.2 114.731 27.036 117.287 27.036C120.275 27.036 122.687 24.588 122.687 21.6C122.687 20.16 122.147 18.828 121.103 17.784Z" fill="url(#paint0_linear_8_579)"/>
<defs>
<linearGradient id="paint0_linear_8_579" x1="-2.78186e-07" y1="23.5862" x2="130.252" y2="14.7405" gradientUnits="userSpaceOnUse">
<stop stop-color="#F8A486"/>
<stop offset="1" stop-color="#F9D46B"/>
</linearGradient>
</defs>
</svg>
